<mxfile>
    <diagram id="1GRCF87MEDdChUUmZ0ac" name="block">
        <mxGraphModel dx="288" dy="226" grid="1" gridSize="10" guides="1" tooltips="1" connect="1" arrows="1" fold="1" page="1" pageScale="1" pageWidth="850" pageHeight="1100" math="0" shadow="0">
            <root>
                <mxCell id="0"/>
                <mxCell id="1" parent="0"/>
                <mxCell id="11" value="" style="group;strokeColor=#F0F0F0;fontColor=#F0F0F0;" vertex="1" connectable="0" parent="1">
                    <mxGeometry x="40" y="120" width="200" height="240" as="geometry"/>
                </mxCell>
                <mxCell id="3" value="" style="rounded=0;whiteSpace=wrap;html=1;strokeColor=#F0F0F0;fontColor=#F0F0F0;fillColor=none;" vertex="1" parent="11">
                    <mxGeometry width="200" height="240" as="geometry"/>
                </mxCell>
                <mxCell id="4" value="transactions" style="rounded=0;whiteSpace=wrap;html=1;strokeColor=#F0F0F0;fontColor=#F0F0F0;fillColor=none;" vertex="1" parent="11">
                    <mxGeometry x="10" y="90" width="180" height="140" as="geometry"/>
                </mxCell>
                <mxCell id="10" value="" style="group;strokeColor=#F0F0F0;fontColor=#F0F0F0;" vertex="1" connectable="0" parent="11">
                    <mxGeometry x="10" y="10" width="180" height="80" as="geometry"/>
                </mxCell>
                <mxCell id="5" value="hash of previous block" style="rounded=0;whiteSpace=wrap;html=1;strokeColor=#F0F0F0;fontColor=#F0F0F0;fillColor=none;" vertex="1" parent="10">
                    <mxGeometry width="180" height="20" as="geometry"/>
                </mxCell>
                <mxCell id="6" value="timestamp" style="rounded=0;whiteSpace=wrap;html=1;strokeColor=#F0F0F0;fontColor=#F0F0F0;fillColor=none;" vertex="1" parent="10">
                    <mxGeometry y="20" width="180" height="20" as="geometry"/>
                </mxCell>
                <mxCell id="7" value="nonce" style="rounded=0;whiteSpace=wrap;html=1;strokeColor=#F0F0F0;fontColor=#F0F0F0;fillColor=none;" vertex="1" parent="10">
                    <mxGeometry y="40" width="180" height="20" as="geometry"/>
                </mxCell>
                <mxCell id="8" value="merkle root" style="rounded=0;whiteSpace=wrap;html=1;strokeColor=#F0F0F0;fontColor=#F0F0F0;fillColor=none;" vertex="1" parent="10">
                    <mxGeometry y="60" width="180" height="20" as="geometry"/>
                </mxCell>
                <mxCell id="pNki4_hhaj4XndRfRFaX-11" value="" style="group;strokeColor=#F0F0F0;fontColor=#F0F0F0;" vertex="1" connectable="0" parent="1">
                    <mxGeometry x="280" y="120" width="200" height="240" as="geometry"/>
                </mxCell>
                <mxCell id="pNki4_hhaj4XndRfRFaX-12" value="" style="rounded=0;whiteSpace=wrap;html=1;strokeColor=#F0F0F0;fontColor=#F0F0F0;fillColor=none;" vertex="1" parent="pNki4_hhaj4XndRfRFaX-11">
                    <mxGeometry width="200" height="240" as="geometry"/>
                </mxCell>
                <mxCell id="pNki4_hhaj4XndRfRFaX-13" value="transactions" style="rounded=0;whiteSpace=wrap;html=1;strokeColor=#F0F0F0;fontColor=#F0F0F0;fillColor=none;" vertex="1" parent="pNki4_hhaj4XndRfRFaX-11">
                    <mxGeometry x="10" y="90" width="180" height="140" as="geometry"/>
                </mxCell>
                <mxCell id="pNki4_hhaj4XndRfRFaX-14" value="" style="group;strokeColor=#F0F0F0;fontColor=#F0F0F0;" vertex="1" connectable="0" parent="pNki4_hhaj4XndRfRFaX-11">
                    <mxGeometry x="10" y="10" width="180" height="80" as="geometry"/>
                </mxCell>
                <mxCell id="pNki4_hhaj4XndRfRFaX-15" value="hash of previous block" style="rounded=0;whiteSpace=wrap;html=1;strokeColor=#F0F0F0;fontColor=#F0F0F0;fillColor=none;" vertex="1" parent="pNki4_hhaj4XndRfRFaX-14">
                    <mxGeometry width="180" height="20" as="geometry"/>
                </mxCell>
                <mxCell id="pNki4_hhaj4XndRfRFaX-16" value="timestamp" style="rounded=0;whiteSpace=wrap;html=1;strokeColor=#F0F0F0;fontColor=#F0F0F0;fillColor=none;" vertex="1" parent="pNki4_hhaj4XndRfRFaX-14">
                    <mxGeometry y="20" width="180" height="20" as="geometry"/>
                </mxCell>
                <mxCell id="pNki4_hhaj4XndRfRFaX-17" value="nonce" style="rounded=0;whiteSpace=wrap;html=1;strokeColor=#F0F0F0;fontColor=#F0F0F0;fillColor=none;" vertex="1" parent="pNki4_hhaj4XndRfRFaX-14">
                    <mxGeometry y="40" width="180" height="20" as="geometry"/>
                </mxCell>
                <mxCell id="pNki4_hhaj4XndRfRFaX-18" value="merkle root" style="rounded=0;whiteSpace=wrap;html=1;strokeColor=#F0F0F0;fontColor=#F0F0F0;fillColor=none;" vertex="1" parent="pNki4_hhaj4XndRfRFaX-14">
                    <mxGeometry y="60" width="180" height="20" as="geometry"/>
                </mxCell>
                <mxCell id="pNki4_hhaj4XndRfRFaX-19" value="" style="group;strokeColor=#F0F0F0;fontColor=#F0F0F0;" vertex="1" connectable="0" parent="1">
                    <mxGeometry x="520" y="120" width="200" height="240" as="geometry"/>
                </mxCell>
                <mxCell id="pNki4_hhaj4XndRfRFaX-20" value="" style="rounded=0;whiteSpace=wrap;html=1;strokeColor=#F0F0F0;fontColor=#F0F0F0;fillColor=none;" vertex="1" parent="pNki4_hhaj4XndRfRFaX-19">
                    <mxGeometry width="200" height="240" as="geometry"/>
                </mxCell>
                <mxCell id="pNki4_hhaj4XndRfRFaX-21" value="transactions" style="rounded=0;whiteSpace=wrap;html=1;strokeColor=#F0F0F0;fontColor=#F0F0F0;fillColor=none;" vertex="1" parent="pNki4_hhaj4XndRfRFaX-19">
                    <mxGeometry x="10" y="90" width="180" height="140" as="geometry"/>
                </mxCell>
                <mxCell id="pNki4_hhaj4XndRfRFaX-22" value="" style="group;strokeColor=#F0F0F0;fontColor=#F0F0F0;" vertex="1" connectable="0" parent="pNki4_hhaj4XndRfRFaX-19">
                    <mxGeometry x="10" y="10" width="180" height="80" as="geometry"/>
                </mxCell>
                <mxCell id="pNki4_hhaj4XndRfRFaX-23" value="hash of previous block" style="rounded=0;whiteSpace=wrap;html=1;strokeColor=#F0F0F0;fontColor=#F0F0F0;fillColor=none;" vertex="1" parent="pNki4_hhaj4XndRfRFaX-22">
                    <mxGeometry width="180" height="20" as="geometry"/>
                </mxCell>
                <mxCell id="pNki4_hhaj4XndRfRFaX-24" value="timestamp" style="rounded=0;whiteSpace=wrap;html=1;strokeColor=#F0F0F0;fontColor=#F0F0F0;fillColor=none;" vertex="1" parent="pNki4_hhaj4XndRfRFaX-22">
                    <mxGeometry y="20" width="180" height="20" as="geometry"/>
                </mxCell>
                <mxCell id="pNki4_hhaj4XndRfRFaX-25" value="nonce" style="rounded=0;whiteSpace=wrap;html=1;strokeColor=#F0F0F0;fontColor=#F0F0F0;fillColor=none;" vertex="1" parent="pNki4_hhaj4XndRfRFaX-22">
                    <mxGeometry y="40" width="180" height="20" as="geometry"/>
                </mxCell>
                <mxCell id="pNki4_hhaj4XndRfRFaX-26" value="merkle root" style="rounded=0;whiteSpace=wrap;html=1;strokeColor=#F0F0F0;fontColor=#F0F0F0;fillColor=none;" vertex="1" parent="pNki4_hhaj4XndRfRFaX-22">
                    <mxGeometry y="60" width="180" height="20" as="geometry"/>
                </mxCell>
                <mxCell id="pNki4_hhaj4XndRfRFaX-27" value="Block 1" style="text;html=1;strokeColor=none;fillColor=none;align=center;verticalAlign=middle;whiteSpace=wrap;rounded=0;fontColor=#F0F0F0;" vertex="1" parent="1">
                    <mxGeometry x="80" y="80" width="120" height="20" as="geometry"/>
                </mxCell>
                <mxCell id="pNki4_hhaj4XndRfRFaX-28" value="Block 2" style="text;html=1;strokeColor=none;fillColor=none;align=center;verticalAlign=middle;whiteSpace=wrap;rounded=0;fontColor=#F0F0F0;" vertex="1" parent="1">
                    <mxGeometry x="320" y="80" width="120" height="20" as="geometry"/>
                </mxCell>
                <mxCell id="pNki4_hhaj4XndRfRFaX-29" value="Block 3" style="text;html=1;strokeColor=none;fillColor=none;align=center;verticalAlign=middle;whiteSpace=wrap;rounded=0;fontColor=#F0F0F0;" vertex="1" parent="1">
                    <mxGeometry x="560" y="80" width="120" height="20" as="geometry"/>
                </mxCell>
                <mxCell id="pNki4_hhaj4XndRfRFaX-30" style="edgeStyle=orthogonalEdgeStyle;rounded=0;orthogonalLoop=1;jettySize=auto;html=1;exitX=1;exitY=0.5;exitDx=0;exitDy=0;entryX=0;entryY=0.5;entryDx=0;entryDy=0;startArrow=none;startFill=0;endArrow=openThin;endFill=0;strokeColor=#F0F0F0;fontColor=#F0F0F0;" edge="1" parent="1" source="3" target="pNki4_hhaj4XndRfRFaX-12">
                    <mxGeometry relative="1" as="geometry"/>
                </mxCell>
                <mxCell id="pNki4_hhaj4XndRfRFaX-31" style="edgeStyle=orthogonalEdgeStyle;rounded=0;orthogonalLoop=1;jettySize=auto;html=1;entryX=0;entryY=0.5;entryDx=0;entryDy=0;startArrow=none;startFill=0;endArrow=openThin;endFill=0;strokeColor=#F0F0F0;fontColor=#F0F0F0;" edge="1" parent="1" target="pNki4_hhaj4XndRfRFaX-20">
                    <mxGeometry relative="1" as="geometry">
                        <mxPoint x="480" y="240" as="sourcePoint"/>
                        <mxPoint x="290" y="250" as="targetPoint"/>
                    </mxGeometry>
                </mxCell>
                <mxCell id="pNki4_hhaj4XndRfRFaX-32" style="edgeStyle=orthogonalEdgeStyle;rounded=0;orthogonalLoop=1;jettySize=auto;html=1;entryX=0;entryY=0.5;entryDx=0;entryDy=0;startArrow=none;startFill=0;endArrow=openThin;endFill=0;strokeColor=#F0F0F0;fontColor=#F0F0F0;" edge="1" parent="1">
                    <mxGeometry relative="1" as="geometry">
                        <mxPoint x="720" y="239.66" as="sourcePoint"/>
                        <mxPoint x="760" y="239.66" as="targetPoint"/>
                    </mxGeometry>
                </mxCell>
            </root>
        </mxGraphModel>
    </diagram>
    <diagram id="W4BKECktwOjYHuGcndTP" name="Merkle Tree">
        <mxGraphModel dx="695" dy="545" grid="1" gridSize="10" guides="1" tooltips="1" connect="1" arrows="1" fold="1" page="1" pageScale="1" pageWidth="850" pageHeight="1100" math="0" shadow="0">
            <root>
                <mxCell id="FPImrqedmE8MAAXKtZ2X-0"/>
                <mxCell id="FPImrqedmE8MAAXKtZ2X-1" parent="FPImrqedmE8MAAXKtZ2X-0"/>
                <mxCell id="FPImrqedmE8MAAXKtZ2X-2" value="Leaf Node 1&lt;br&gt;data 1" style="rounded=0;whiteSpace=wrap;html=1;strokeColor=#F0F0F0;fillColor=none;fontColor=#F0F0F0;" vertex="1" parent="FPImrqedmE8MAAXKtZ2X-1">
                    <mxGeometry x="40" y="400" width="120" height="40" as="geometry"/>
                </mxCell>
                <mxCell id="FPImrqedmE8MAAXKtZ2X-3" value="Leaf Node 2&lt;br&gt;data 2" style="rounded=0;whiteSpace=wrap;html=1;strokeColor=#F0F0F0;fillColor=none;fontColor=#F0F0F0;" vertex="1" parent="FPImrqedmE8MAAXKtZ2X-1">
                    <mxGeometry x="200" y="400" width="120" height="40" as="geometry"/>
                </mxCell>
                <mxCell id="FPImrqedmE8MAAXKtZ2X-4" value="Leaf Node 3&lt;br&gt;data 3" style="rounded=0;whiteSpace=wrap;html=1;strokeColor=#F0F0F0;fillColor=none;fontColor=#F0F0F0;" vertex="1" parent="FPImrqedmE8MAAXKtZ2X-1">
                    <mxGeometry x="360" y="400" width="120" height="40" as="geometry"/>
                </mxCell>
                <mxCell id="FPImrqedmE8MAAXKtZ2X-5" value="Leaf Node 4&lt;br&gt;data 4" style="rounded=0;whiteSpace=wrap;html=1;strokeColor=#F0F0F0;fillColor=none;fontColor=#F0F0F0;" vertex="1" parent="FPImrqedmE8MAAXKtZ2X-1">
                    <mxGeometry x="520" y="400" width="120" height="40" as="geometry"/>
                </mxCell>
                <mxCell id="FPImrqedmE8MAAXKtZ2X-12" value="" style="edgeStyle=orthogonalEdgeStyle;rounded=0;orthogonalLoop=1;jettySize=auto;html=1;startArrow=blockThin;startFill=1;endArrow=none;endFill=0;strokeColor=#F0F0F0;" edge="1" parent="FPImrqedmE8MAAXKtZ2X-1" source="FPImrqedmE8MAAXKtZ2X-6" target="FPImrqedmE8MAAXKtZ2X-2">
                    <mxGeometry relative="1" as="geometry"/>
                </mxCell>
                <mxCell id="FPImrqedmE8MAAXKtZ2X-6" value="Hash 1-1&lt;br&gt;hash( Leaf Node 1 )" style="rounded=0;whiteSpace=wrap;html=1;strokeColor=#F0F0F0;fillColor=none;fontColor=#F0F0F0;" vertex="1" parent="FPImrqedmE8MAAXKtZ2X-1">
                    <mxGeometry x="40" y="320" width="120" height="40" as="geometry"/>
                </mxCell>
                <mxCell id="FPImrqedmE8MAAXKtZ2X-13" value="" style="edgeStyle=orthogonalEdgeStyle;rounded=0;orthogonalLoop=1;jettySize=auto;html=1;startArrow=blockThin;startFill=1;endArrow=none;endFill=0;strokeColor=#F0F0F0;" edge="1" parent="FPImrqedmE8MAAXKtZ2X-1" source="FPImrqedmE8MAAXKtZ2X-7" target="FPImrqedmE8MAAXKtZ2X-3">
                    <mxGeometry relative="1" as="geometry"/>
                </mxCell>
                <mxCell id="FPImrqedmE8MAAXKtZ2X-7" value="Hash 1-2&lt;br&gt;hash( Leaf Node 2 )" style="rounded=0;whiteSpace=wrap;html=1;strokeColor=#F0F0F0;fillColor=none;fontColor=#F0F0F0;" vertex="1" parent="FPImrqedmE8MAAXKtZ2X-1">
                    <mxGeometry x="200" y="320" width="120" height="40" as="geometry"/>
                </mxCell>
                <mxCell id="FPImrqedmE8MAAXKtZ2X-15" value="" style="edgeStyle=orthogonalEdgeStyle;rounded=0;orthogonalLoop=1;jettySize=auto;html=1;startArrow=blockThin;startFill=1;endArrow=none;endFill=0;strokeColor=#F0F0F0;" edge="1" parent="FPImrqedmE8MAAXKtZ2X-1" source="FPImrqedmE8MAAXKtZ2X-8" target="FPImrqedmE8MAAXKtZ2X-4">
                    <mxGeometry relative="1" as="geometry"/>
                </mxCell>
                <mxCell id="FPImrqedmE8MAAXKtZ2X-8" value="Hash 2-1&lt;br&gt;hash( Leaf Node 3 )" style="rounded=0;whiteSpace=wrap;html=1;strokeColor=#F0F0F0;fillColor=none;fontColor=#F0F0F0;" vertex="1" parent="FPImrqedmE8MAAXKtZ2X-1">
                    <mxGeometry x="360" y="320" width="120" height="40" as="geometry"/>
                </mxCell>
                <mxCell id="FPImrqedmE8MAAXKtZ2X-16" value="" style="edgeStyle=orthogonalEdgeStyle;rounded=0;orthogonalLoop=1;jettySize=auto;html=1;startArrow=blockThin;startFill=1;endArrow=none;endFill=0;strokeColor=#F0F0F0;" edge="1" parent="FPImrqedmE8MAAXKtZ2X-1" source="FPImrqedmE8MAAXKtZ2X-9" target="FPImrqedmE8MAAXKtZ2X-5">
                    <mxGeometry relative="1" as="geometry"/>
                </mxCell>
                <mxCell id="FPImrqedmE8MAAXKtZ2X-9" value="Hash 2-2&lt;br&gt;hash( Leaf Node 4 )" style="rounded=0;whiteSpace=wrap;html=1;strokeColor=#F0F0F0;fillColor=none;fontColor=#F0F0F0;" vertex="1" parent="FPImrqedmE8MAAXKtZ2X-1">
                    <mxGeometry x="520" y="320" width="120" height="40" as="geometry"/>
                </mxCell>
                <mxCell id="FPImrqedmE8MAAXKtZ2X-10" value="Hash 1&lt;br&gt;hash( Hash 1-1 + Hash 1-2 )" style="rounded=0;whiteSpace=wrap;html=1;strokeColor=#F0F0F0;fillColor=none;fontColor=#F0F0F0;" vertex="1" parent="FPImrqedmE8MAAXKtZ2X-1">
                    <mxGeometry x="90" y="240" width="180" height="40" as="geometry"/>
                </mxCell>
                <mxCell id="FPImrqedmE8MAAXKtZ2X-17" value="" style="edgeStyle=orthogonalEdgeStyle;rounded=0;orthogonalLoop=1;jettySize=auto;html=1;startArrow=blockThin;startFill=1;endArrow=none;endFill=0;strokeColor=#F0F0F0;" edge="1" parent="FPImrqedmE8MAAXKtZ2X-1" source="FPImrqedmE8MAAXKtZ2X-11" target="FPImrqedmE8MAAXKtZ2X-9">
                    <mxGeometry relative="1" as="geometry"/>
                </mxCell>
                <mxCell id="FPImrqedmE8MAAXKtZ2X-11" value="Hash 2&lt;br&gt;hash( Hash 2-1 + Hash 2-2 )" style="rounded=0;whiteSpace=wrap;html=1;strokeColor=#F0F0F0;fillColor=none;fontColor=#F0F0F0;" vertex="1" parent="FPImrqedmE8MAAXKtZ2X-1">
                    <mxGeometry x="410" y="240" width="180" height="40" as="geometry"/>
                </mxCell>
                <mxCell id="FPImrqedmE8MAAXKtZ2X-18" value="" style="edgeStyle=orthogonalEdgeStyle;rounded=0;orthogonalLoop=1;jettySize=auto;html=1;entryX=0.5;entryY=0;entryDx=0;entryDy=0;startArrow=blockThin;startFill=1;endArrow=none;endFill=0;strokeColor=#F0F0F0;" edge="1" parent="FPImrqedmE8MAAXKtZ2X-1" source="FPImrqedmE8MAAXKtZ2X-11" target="FPImrqedmE8MAAXKtZ2X-8">
                    <mxGeometry relative="1" as="geometry">
                        <mxPoint x="510" y="290" as="sourcePoint"/>
                        <mxPoint x="590" y="330" as="targetPoint"/>
                    </mxGeometry>
                </mxCell>
                <mxCell id="FPImrqedmE8MAAXKtZ2X-19" value="" style="edgeStyle=orthogonalEdgeStyle;rounded=0;orthogonalLoop=1;jettySize=auto;html=1;entryX=0.5;entryY=0;entryDx=0;entryDy=0;exitX=0.5;exitY=1;exitDx=0;exitDy=0;startArrow=blockThin;startFill=1;endArrow=none;endFill=0;strokeColor=#F0F0F0;" edge="1" parent="FPImrqedmE8MAAXKtZ2X-1" source="FPImrqedmE8MAAXKtZ2X-10" target="FPImrqedmE8MAAXKtZ2X-7">
                    <mxGeometry relative="1" as="geometry">
                        <mxPoint x="510" y="290" as="sourcePoint"/>
                        <mxPoint x="430" y="330" as="targetPoint"/>
                    </mxGeometry>
                </mxCell>
                <mxCell id="FPImrqedmE8MAAXKtZ2X-20" value="" style="edgeStyle=orthogonalEdgeStyle;rounded=0;orthogonalLoop=1;jettySize=auto;html=1;startArrow=blockThin;startFill=1;endArrow=none;endFill=0;strokeColor=#F0F0F0;" edge="1" parent="FPImrqedmE8MAAXKtZ2X-1" source="FPImrqedmE8MAAXKtZ2X-10" target="FPImrqedmE8MAAXKtZ2X-6">
                    <mxGeometry relative="1" as="geometry">
                        <mxPoint x="190" y="290" as="sourcePoint"/>
                        <mxPoint x="270" y="330" as="targetPoint"/>
                    </mxGeometry>
                </mxCell>
                <mxCell id="FPImrqedmE8MAAXKtZ2X-22" value="Top Hash (Merkle Root)&lt;br&gt;hash( Hash 1 + Hash 2 )" style="rounded=0;whiteSpace=wrap;html=1;strokeColor=#F0F0F0;fillColor=none;fontColor=#F0F0F0;" vertex="1" parent="FPImrqedmE8MAAXKtZ2X-1">
                    <mxGeometry x="250" y="160" width="180" height="40" as="geometry"/>
                </mxCell>
                <mxCell id="FPImrqedmE8MAAXKtZ2X-23" value="" style="edgeStyle=orthogonalEdgeStyle;rounded=0;orthogonalLoop=1;jettySize=auto;html=1;exitX=0.5;exitY=1;exitDx=0;exitDy=0;entryX=0.5;entryY=0;entryDx=0;entryDy=0;startArrow=blockThin;startFill=1;endArrow=none;endFill=0;strokeColor=#F0F0F0;" edge="1" parent="FPImrqedmE8MAAXKtZ2X-1" source="FPImrqedmE8MAAXKtZ2X-22" target="FPImrqedmE8MAAXKtZ2X-10">
                    <mxGeometry relative="1" as="geometry">
                        <mxPoint x="190" y="290" as="sourcePoint"/>
                        <mxPoint x="110" y="330" as="targetPoint"/>
                    </mxGeometry>
                </mxCell>
                <mxCell id="FPImrqedmE8MAAXKtZ2X-24" value="" style="edgeStyle=orthogonalEdgeStyle;rounded=0;orthogonalLoop=1;jettySize=auto;html=1;exitX=0.5;exitY=1;exitDx=0;exitDy=0;entryX=0.5;entryY=0;entryDx=0;entryDy=0;startArrow=blockThin;startFill=1;endArrow=none;endFill=0;strokeColor=#F0F0F0;" edge="1" parent="FPImrqedmE8MAAXKtZ2X-1" source="FPImrqedmE8MAAXKtZ2X-22" target="FPImrqedmE8MAAXKtZ2X-11">
                    <mxGeometry relative="1" as="geometry">
                        <mxPoint x="350" y="210" as="sourcePoint"/>
                        <mxPoint x="190" y="250" as="targetPoint"/>
                    </mxGeometry>
                </mxCell>
            </root>
        </mxGraphModel>
    </diagram>
</mxfile>